<svg version="1" xmlns="http://www.w3.org/2000/svg" width="870.7" height="869.1" viewBox="0 0 870.7 869.1"><style type="text/css"><![CDATA[
	.st0{fill:#1A1A1A;}
	.st1{fill:#FFFFFF;stroke:#414042;stroke-width:19.1484;stroke-miterlimit:10;}
	.st2{fill:none;stroke:#1A1A1A;stroke-width:1.2342;stroke-miterlimit:10;}
	.st3{fill:#414042;}
]]></style><g id="Layer_5"><path class="st1" d="M857.8 437.3c0 234.4-190 424.5-424.5 424.5-234.4 0-424.5-190-424.5-424.5 0-234.4 190-424.5 424.5-424.5s424.5 190 424.5 424.5z"/><path class="st0" d="M697.6 472v-292.1l-12.7 13.3c-.3.3-25.9 26.6-52.9 26.6-1.4 0-2.9-.1-4.6-.3-.2 0-19.7-1.8-41-20.9-3.9-3.8-38.2-36.7-56.8-43.7-2.5-1.2-15.3-6.8-32.1-6.8s-31.9 5.5-45.1 16.3c-.6.5-11 9.5-19.1 19.8-8.2-10.3-18.6-19.4-19.3-19.9-13-10.8-28.1-16.2-44.9-16.2-16.7 0-29.6 5.6-32.1 6.8-18.6 7-52.9 39.9-56.5 43.5-21.5 19.3-41 21.1-41.5 21.1-28.7 3.1-57-26.1-57.3-26.4l-12.7-13.2v292.1l.6.6c3 3.8 20.1 24.8 43.8 39.6 0 0 27.1 17.7 65.9 24.1 0 0 31.5 7.4 70-1.2 0 0 23.2-3.9 49.7-22 0 0 16.6-11.4 34.3-12.7 17.7 1.3 34.3 12.7 34.3 12.7 26.5 18.1 49.7 22 49.7 22 38.5 8.6 70 1.2 70 1.2 38.8-6.4 65.9-24.1 65.9-24.1 23.8-14.8 40.9-35.8 43.8-39.6l.6-.6zm-235.6-296.2c10.3-8.5 22.2-12.8 35.5-12.8 14.7 0 25.8 5.4 25.9 5.4l.8.3c13.1 4.7 41.9 30.8 52.1 40.7 25.5 22.9 49 24.8 49.7 24.8 22.5 2.5 43.9-9.9 56.8-19.7v251.3c-6.6 6.2-28.2 24.6-50.9 24.6-1.4 0-2.9-.1-4.6-.3-.2 0-19.7-1.8-41-20.9-3.9-3.8-38.2-36.7-56.8-43.7-2.5-1.2-15.3-6.8-32.1-6.8s-31.9 5.5-45 16.3c-.4.3-5.6 4.9-11.5 11.1v-247.1c6.9-10.8 21.1-23.1 21.1-23.2zm-278.1 38.7c11.8 9 30.5 20.1 50.9 20 2 0 3.9-.1 5.6-.3 1-.1 24.5-1.9 50.3-25 10-9.7 38.7-35.8 51.8-40.5l.8-.3c.1 0 11.3-5.4 25.9-5.4 13.3 0 25.2 4.3 35.4 12.7.2.1 14.4 12.5 21.2 23.3v247.2c-5.9-6.2-11.2-10.8-11.6-11.2-13-10.8-28.1-16.2-44.9-16.2-16.7 0-29.6 5.6-32.1 6.8-18.6 7-52.9 39.9-56.5 43.5-21.5 19.3-41 21.1-41.5 21.1-1.5.2-2.9.2-4.3.2-22.6 0-44.2-18.4-50.9-24.6v-251.3z"/><line class="st2" x1="170.8" y1="597.9" x2="359.6" y2="597.9"/><line class="st2" x1="507.1" y1="597.9" x2="695.9" y2="597.9"/><polygon class="st3" points="420.7,582.6 395.2,582.6 395.2,586.6 405.6,586.6 405.6,613.2 410.1,613.2 410.1,586.6 420.7,586.6"/><polygon class="st3" points="427.3,600 444.3,600 444.3,613.2 448.8,613.2 448.8,582.7 444.3,582.7 444.3,595.8 427.3,595.8 427.3,582.7 422.9,582.7 422.9,613.2 427.3,613.2"/><polygon class="st3" points="471.1,609.1 457.8,609.1 457.8,599.8 470.3,599.8 470.3,595.8 457.8,595.8 457.8,586.7 470.7,586.7 470.7,582.7 453.4,582.7 453.4,613.1 471.1,613.1"/><path class="st3" d="M197.9 662.6c6-2.6 9-6.8 9-12.7 0-3.1-.7-5.8-2.2-8.2-1.5-2.3-3.6-4.2-6.4-5.5-2.8-1.3-6.7-2-11.6-2h-15.8v60.3h20.4c4.6 0 8.5-.8 11.5-2.3 3-1.5 5.4-3.5 7-5.9 1.6-2.4 2.4-5.2 2.4-8.3 0-3.9-1.3-7.2-3.9-10-2.7-2.8-6.1-4.6-10.4-5.4zm-18.3-20.6h7.3c7.3 0 10.9 2.9 10.9 8.6 0 2.7-1 5-2.9 6.7-1.9 1.7-5.2 2.6-9.7 2.6h-5.6v-17.9zm21.9 40.2c-1 1.5-2.4 2.7-4 3.4-1.7.7-4.9 1.1-9.5 1.1h-8.4v-18.9h8c4.2 0 7.4.4 9.3 1.1 2 .7 3.5 1.9 4.6 3.4 1.1 1.5 1.6 3.2 1.6 5 0 1.7-.6 3.4-1.6 4.9zM246.5 633.4c-9.3 0-17 3-23.1 8.8-6.1 5.9-9.1 13.4-9.1 22.3 0 8.7 3.1 16.1 9.1 21.9 6 5.8 13.6 8.7 22.7 8.7 9.5 0 17.4-2.9 23.6-8.7 6.2-5.8 9.4-13.2 9.4-22.1 0-8.8-3.1-16.3-9.3-22.2-6.2-5.8-14.1-8.7-23.3-8.7zm16.8 47.1c-4.5 4.4-10.1 6.6-16.7 6.6s-12.2-2.2-16.6-6.4c-4.4-4.3-6.6-9.7-6.6-16.1 0-6.6 2.2-12.2 6.6-16.4 4.4-4.3 10.1-6.4 16.9-6.4 6.5 0 12 2.2 16.5 6.5 4.4 4.3 6.7 9.7 6.7 16-.1 6.4-2.4 11.9-6.8 16.2zM315.5 633.4c-9.3 0-17 3-23.1 8.8-6.1 5.9-9.1 13.4-9.1 22.3 0 8.7 3.1 16.1 9.1 21.9 6 5.8 13.7 8.7 22.7 8.7 9.5 0 17.4-2.9 23.6-8.7 6.2-5.8 9.4-13.2 9.4-22.1 0-8.8-3.1-16.3-9.3-22.2-6.2-5.8-14.1-8.7-23.3-8.7zm16.8 47.1c-4.5 4.4-10.1 6.6-16.7 6.6s-12.2-2.2-16.6-6.4c-4.4-4.3-6.6-9.7-6.6-16.1 0-6.6 2.2-12.2 6.6-16.4 4.4-4.3 10.1-6.4 16.9-6.4 6.5 0 12 2.2 16.5 6.5 4.4 4.3 6.7 9.7 6.7 16-.1 6.4-2.3 11.9-6.8 16.2z"/><polygon class="st3" points="398,634.3 398.1,634.2 387.1,634.2 361.9,661.6 361.9,634.2 353.2,634.2 353.2,694.5 361.9,694.5 361.9,664.9 392.5,694.5 392.5,694.5 404.5,694.5 371.9,662.8"/><path class="st3" d="M443.8 662l-6.6-3.9c-2.9-1.7-5.1-3.4-6.4-4.9-1.3-1.5-2-3.2-2-5 0-2 .9-3.6 2.7-4.9 1.8-1.3 4.1-1.9 6.9-1.9 4.9 0 9.6 2.1 13.9 6.2l.1.1v-10c-4.2-2.8-8.8-4.2-13.9-4.2-5.2 0-9.6 1.5-12.8 4.5-3.3 2.9-5 6.8-5 11.6 0 3.2.9 6 2.6 8.4 1.7 2.4 4.7 4.9 8.8 7.4l6.5 4c5.2 3.3 7.9 6.7 7.9 10.4 0 2.2-.9 4.1-2.7 5.6-1.8 1.5-4 2.2-6.7 2.2-6.1 0-11.5-3-16.1-8.8l-.1-.2v11.2c4.9 3.6 10.3 5.5 16.3 5.5 5.2 0 9.4-1.5 12.6-4.5 3.2-3 4.9-7 4.9-11.8.2-6.9-3.5-12.6-10.9-17z"/><polygon class="st3" points="507.5,634.1 457.1,634.1 457.1,641.9 477.7,641.9 477.7,694.5 486.5,694.5 486.5,641.9 507.5,641.9"/><path class="st3" d="M527.3 633.9h-6.1l-25.8 60.5v.1h9l7.5-17.8h25.5l8 17.8h9l-27.1-60.6zm-12.1 35l8.9-21.5 9.6 21.5h-18.5z"/><polygon class="st3" points="646.4,660.2 612.8,660.2 612.8,634.2 604,634.2 604,694.5 612.8,694.5 612.8,668.3 646.4,668.3 646.4,694.5 655.2,694.5 655.2,634.2 646.4,634.2"/><polygon class="st3" points="669.6,686.6 669.6,668.1 694.2,668.1 694.2,660.2 669.6,660.2 669.6,642 695.1,642 695.1,634.2 660.9,634.2 660.9,694.4 695.9,694.4 695.9,686.6"/><path class="st3" d="M582 633.4c-9.1 0-16.9 3-23.1 9-6.2 6-9.4 13.4-9.4 22.1 0 5.5 1.4 10.7 4.1 15.4 2.7 4.7 6.5 8.5 11.1 11.2 4.7 2.7 10.4 4.1 17.1 4.1 6.2 0 11.9-1 17.1-2.9h.1v-9.3h-.1c-5.4 2.7-10.9 4-16.5 4-6.9 0-12.7-2.1-17.1-6.3-4.4-4.2-6.7-9.7-6.7-16.2s2.3-12 6.8-16.3c4.5-4.3 10.3-6.5 17.1-6.5 5.2 0 10.8 1.3 16.4 3.9h.1v-8.9h-.1c-6.2-2.1-11.9-3.3-16.9-3.3z"/></g></svg>