<?xml version="1.0" encoding="utf-8"?>
<!-- Generator: Adobe Illustrator 16.0.0, SVG Export Plug-In . SVG Version: 6.00 Build 0)  -->
<!DOCTYPE svg PUBLIC "-//W3C//DTD SVG 1.0//EN" "http://www.w3.org/TR/2001/REC-SVG-20010904/DTD/svg10.dtd">
<svg version="1.0" id="Layer_1" xmlns="http://www.w3.org/2000/svg" xmlns:xlink="http://www.w3.org/1999/xlink" x="0px" y="0px"
	 width="267.3px" height="99.8px" viewBox="0 0 267.3 99.8" style="enable-background:new 0 0 267.3 99.8;" xml:space="preserve">
<style type="text/css">
<![CDATA[
	.st0{fill:#4A1B0F;}
	.st1{fill:#F1F0F0;}
	.st2{fill:#AE3424;stroke:#4A1B0F;stroke-width:0.7926;stroke-miterlimit:10;}
	.st3{fill:none;}
	.st4{fill:#414042;}
]]>
</style>
<g>
	<path class="st4" d="M112.3,5.1c0.4,0.2,0.6,0.4,0.6,0.6c0,0.1-0.1,0.3-0.2,0.4c-0.9,0.7-1.8,1.5-2.6,2.4c-0.9,1-1.7,2.8-2.5,5.4
		c0.3-0.2,0.6-0.4,0.9-0.7c0.2-0.2,0.4-0.3,0.6-0.3s0.3,0.1,0.3,0.3c0,0.2-0.2,0.5-0.5,0.8c-0.3,0.3-0.9,0.8-1.7,1.4
		c-0.5,1.6-0.8,2.7-1.2,3.5c-0.5,1.1-1,1.9-1.7,2.5c-0.5,0.5-1.2,0.9-2.1,1.2c-1,0.3-1.9,0.5-2.9,0.5c-1.3,0-2.4-0.3-3.2-1
		c-1.1-0.9-1.6-1.9-1.6-2.9c0-0.6,0.2-1.3,0.6-2c0.2-0.3,0.5-0.6,0.9-0.8c0.4-0.2,0.8-0.3,1.2-0.3c0.6,0,1.1,0.3,1.4,0.8
		c0.2,0.3,0.3,0.6,0.3,0.9c0,0.7-0.5,1.2-1.4,1.5c-0.2,0.1-0.2,0.3-0.2,0.6c0,0.4,0.2,0.7,0.5,1c0.3,0.3,0.7,0.4,1,0.4
		c1.1,0,2.4-1.1,3.8-3.3c0.4-0.6,0.8-1.3,1-1.9c-1-0.2-1.9-0.6-2.6-1.3c-0.7-0.8-1.1-1.7-1.1-2.8c0-2,1-3.8,3-5.3
		c1.9-1.5,4.1-2.2,6.4-2.2C110.6,4.6,111.6,4.7,112.3,5.1z M104.2,14.8c0.4-0.9,0.7-1.8,1.1-2.7c0.5-1,1-1.9,1.6-2.6
		c1.5-1.8,2.6-3,3.4-3.5c-0.5-0.3-1-0.4-1.7-0.4c-1.4,0-2.7,0.5-3.9,1.6c-1.4,1.2-2.2,2.8-2.3,4.7c0,0.7,0.1,1.4,0.5,1.9
		C103.3,14.3,103.7,14.6,104.2,14.8z"/>
	<path class="st4" d="M118.5,16c0.2,0.1,0.3,0.2,0.3,0.3c0,0.2-0.1,0.4-0.3,0.6c-0.7,1-1.6,1.5-2.6,1.6c-0.3,0-0.6,0-0.8-0.1
		c-1.3,1.7-2.7,2.5-4.3,2.5c-0.7,0-1.3-0.2-1.8-0.7c-0.4-0.5-0.7-1.1-0.7-1.9c0-0.3,0-0.7,0.1-1.1c-0.1,0.1-0.1,0.1-0.2,0.1
		c-0.3,0-0.4-0.1-0.4-0.4c0-0.1,0.1-0.3,0.2-0.4c0.7-0.9,1.5-1.8,2.3-2.6c1.3-1.4,2.4-2.3,3.4-2.7c0.6-0.3,1.1-0.4,1.6-0.4
		c1,0,1.6,0.5,2,1.5c0.1,0.2,0.1,0.5,0.1,0.8c0,1-0.4,2.2-1.1,3.6c0.2,0.1,0.3,0.3,0.3,0.6c0.5-0.1,0.9-0.4,1.2-0.9
		C118.1,16,118.3,15.9,118.5,16z M112.3,18.8c0.1,0,0.2,0.1,0.3,0.1c0.5,0,0.9-0.4,1.2-1.2c-0.2-0.3-0.3-0.7-0.3-1
		c0-0.2,0-0.4,0.1-0.6c0.2-0.5,0.7-0.7,1.4-0.5c0.6-1.1,0.8-1.9,0.8-2.4c0-0.4-0.2-0.6-0.6-0.6c-0.6,0-1.4,0.9-2.4,2.7
		c-0.8,1.4-1.1,2.3-1.1,2.9C111.9,18.4,112,18.6,112.3,18.8z"/>
	<path class="st4" d="M117.8,17.2c-0.3-0.2-0.4-0.4-0.2-0.7c0.3-0.3,0.9-1.1,1.8-2.2c0.5-0.7,0.9-1.4,1.4-2c0.5-0.8,1-1.2,1.2-1.2
		c0.4-0.1,0.6-0.2,0.7-0.2c0.1,0,0.3,0.1,0.4,0.3c0.6,0.8,1,1.3,1,1.6c0,0.4-0.3,1.2-0.9,2.5c-0.6,1.2-0.8,2-0.8,2.4
		c0,0.2,0.1,0.2,0.2,0.2c0.2,0,0.5-0.3,1.1-0.9c0.7-0.7,1.2-1.1,1.4-1.1c0.3,0,0.5,0.1,0.5,0.4c0,0.1-0.1,0.4-0.2,0.6
		c-0.4,0.6-1.2,1.5-2.5,2.5c-1.4,1.1-2.4,1.6-3,1.6c-0.4,0-0.8-0.2-1.1-0.5c-0.2-0.3-0.3-0.5-0.3-0.8c0-0.5,0.1-1.1,0.4-1.8
		c0.1-0.4,0.6-1.4,1.5-3.2c-0.6,0.7-1.2,1.5-2,2.4C118.3,17.1,118.1,17.2,117.8,17.2z M126.7,5.8c0.3,0.2,0.4,0.5,0.4,1
		c0,0.7-0.2,1.4-0.7,1.9c-0.5,0.5-1.1,0.8-1.7,0.8c-0.4,0-0.8-0.1-1.1-0.3c-0.3-0.2-0.4-0.6-0.4-1.1c0-0.6,0.2-1.2,0.7-1.9
		c0.4-0.6,1-0.8,1.7-0.8C126,5.5,126.4,5.6,126.7,5.8z"/>
	<path class="st4" d="M124.4,17.5c-0.2,0-0.3-0.1-0.3-0.2c0-0.1,0.1-0.3,0.2-0.5c0.8-0.9,1.7-2.1,2.8-3.6c1.1-1.7,1.8-2.4,2.2-2.4
		c0.3,0.1,0.5,0.2,0.8,0.5c0.3,0.3,0.4,0.5,0.5,0.8c0.1,0.6,0.1,1.1,0,1.5c-0.1,0.3-0.3,0.7-0.8,1.4c0.5-0.5,1-0.9,1.4-1.3
		c1-0.9,1.8-1.6,2.3-1.9c0.3-0.2,0.6-0.4,1-0.6c0.3-0.2,0.6-0.3,0.9-0.3c0.4,0,0.8,0.2,1.1,0.7c0.1,0.1,0.1,0.2,0.1,0.3
		c0,0.3-0.3,1.2-1,2.5c-1,1.8-1.4,2.9-1.4,3.2c0,0.1,0.1,0.2,0.2,0.2c0.4,0,1-0.3,1.7-1c0,0,0.2-0.2,0.5-0.6
		c0.2-0.2,0.4-0.4,0.5-0.4c0.2,0,0.3,0.2,0.3,0.5c0,0.3-0.2,0.6-0.5,1c-0.4,0.4-1,1-1.8,1.7c-1,0.8-1.7,1.3-2,1.5
		c-0.4,0.2-0.7,0.2-1.1,0.2c-0.8,0-1.3-0.3-1.4-1c-0.1-0.6,0.6-2.3,2-4.9c0.1-0.1,0.1-0.2,0.1-0.3c0-0.1-0.1-0.1-0.2-0.1
		c-0.2,0-0.5,0.1-0.8,0.4c-0.3,0.3-0.8,0.9-1.6,1.8c-0.9,1.1-1.5,1.8-1.9,2.3s-0.8,0.9-1.3,1.3c-0.5,0.4-1,0.6-1.4,0.6
		c-0.5,0-0.8-0.3-0.8-0.8c0-0.2,0.1-0.6,0.3-0.9c0.4-0.6,0.6-0.9,0.6-1c0.3-0.5,0.9-1.8,1.9-3.8C125.7,16.5,124.7,17.5,124.4,17.5z"
		/>
	<path class="st4" d="M145.6,12.2c-0.5,0-0.7-0.2-0.7-0.5c0-0.1,0-0.2,0.1-0.4c0.2-0.3,0.7-0.4,1.7-0.4c0.2-0.2,0.3-0.4,0.4-0.5
		c0.1-0.2,0.6-1.1,1.6-2.7c0.2-0.3,0.3-0.4,0.5-0.4c0.2,0,0.4,0.1,0.6,0.4c0.2,0.2,0.4,0.4,0.5,0.7c0.2,0.3,0.3,0.6,0.3,0.9
		c0,0.3-0.1,0.7-0.3,1.2c0,0-0.1,0.1-0.2,0.5c1.2,0,1.8,0.1,1.8,0.4c0,0.1,0,0.2-0.1,0.3l-0.4,0.6c-0.1,0.1-0.3,0.1-0.6,0.1
		c-0.1,0-0.3,0-0.6,0c-0.3,0-0.6,0-0.8,0c-0.6,0.9-0.9,1.5-1,1.7c0,0,0.1-0.2,0.3-0.5c-1.2,2.3-1.8,3.5-1.9,3.7
		c-0.2,0.5-0.2,0.8,0.1,0.9c0.1,0,0.2,0,0.4,0s0.4-0.2,0.5-0.3c0.6-0.4,1.2-1,1.9-1.6c0.2-0.2,0.4-0.3,0.6-0.3
		c0.3,0,0.5,0.1,0.5,0.4c0,0.1-0.1,0.3-0.4,0.7c-0.6,0.7-1.5,1.5-2.7,2.4c-1.4,1-2.5,1.5-3.2,1.5c-0.6,0-1-0.2-1.4-0.6
		c-0.3-0.4-0.5-0.7-0.4-1.2c0.1-1,0.8-2.5,2-4.6c-0.6,0.7-1.3,1.6-2.1,2.6c-0.3,0.3-0.5,0.3-0.8,0.1c-0.3-0.2-0.3-0.4,0-0.7
		C142.8,15.4,144.1,14,145.6,12.2z"/>
	<path class="st4" d="M149.6,16.4c0-0.1,0.8-0.9,2.2-2.5c0.3-0.4,0.9-1.1,1.6-2.2c0.8-1.1,1.4-2.1,1.8-3c0.3-0.7,0.7-1.4,1-2
		c0.6-1,1-1.6,1.3-1.6c0.5,0,1,0.7,1.5,2.2c0,0,0,0.1,0,0.2c0,0.3-0.3,1-0.9,2.1c-0.8,1.6-1.4,2.8-1.7,3.5c2.3-1.5,3.9-2.2,4.8-2.2
		c0.3,0,0.6,0.1,0.8,0.3s0.3,0.5,0.3,0.8c0,0.2,0,0.5-0.1,0.7c-0.1,0.3-0.8,1.6-2.1,3.9c-0.1,0.2-0.2,0.4-0.2,0.5
		c0,0.2,0.2,0.3,0.5,0.3c0.3,0,0.5-0.1,0.6-0.2c0.5-0.4,0.9-0.8,1.2-1.2c0.2-0.3,0.5-0.5,0.6-0.5c0.3,0,0.4,0.1,0.4,0.4
		c0,0.1-0.1,0.2-0.2,0.4c-0.1,0.2-0.2,0.3-0.2,0.3c0,0.1-0.8,0.9-2.2,2.2c-0.5,0.5-1.1,0.9-1.8,1.3c-0.7,0.4-1.2,0.7-1.6,0.7
		c-0.1,0-0.1,0-0.2,0c-0.8-0.5-1.3-1-1.3-1.5c0-0.4,0.2-0.9,0.5-1.7c0.4-0.9,0.6-1.6,0.6-2.1c0-0.2-0.1-0.3-0.2-0.3
		c-0.3,0-0.9,0.6-1.9,1.9c-1.1,1.5-2,2.5-2.7,3c0,0-0.4,0.2-1.2,0.6c-0.1,0.1-0.2,0.1-0.3,0.1c-0.3,0-0.6-0.3-0.8-0.8
		c-0.1-0.2,0.4-1.2,1.3-2.9c1.4-2.5,2.1-3.9,2.3-4.2c-0.3,0.5-0.9,1.3-1.9,2.5c-0.8,1-1.3,1.6-1.5,1.8c-0.1,0.1-0.2,0.1-0.3,0.1
		c-0.2,0-0.4-0.1-0.5-0.3C149.4,16.8,149.4,16.6,149.6,16.4z"/>
	<path class="st4" d="M166,18c-0.1,0.8,0.2,1.2,0.9,1.2c0.4,0,0.9-0.2,1.5-0.5c0.6-0.3,1.1-0.7,1.5-1.2c0.6-0.6,0.9-1,1.1-1.1
		c0.2-0.1,0.3-0.2,0.4-0.2c0.1,0,0.3,0.1,0.4,0.2c0.1,0.1,0.1,0.1,0.1,0.2c0,0.3-0.5,1-1.5,1.9c-1.9,1.7-3.6,2.6-5.1,2.6
		c-0.5,0-0.9-0.1-1.3-0.3c-0.5-0.3-0.9-0.7-1.2-1.3c-0.2-0.5-0.3-0.9-0.3-1.2c0.1-0.4,0.1-0.6,0.1-0.7c0.1-0.2,0.2-0.4,0.5-0.6
		c-0.4,0.4-0.6,0.6-0.8,0.6c-0.1,0-0.2-0.1-0.4-0.2c-0.1-0.1-0.2-0.3-0.2-0.4c0-0.2,0.1-0.4,0.4-0.6c0.2-0.1,0.6-0.7,1.4-1.6
		c0.8-1,1.6-1.7,2.5-2.4c1.2-0.9,2.2-1.4,3.2-1.4c0.6,0,1.1,0.2,1.5,0.5c0.4,0.4,0.6,0.8,0.6,1.3c0,0.7-0.4,1.5-1.3,2.4
		C169,16.6,167.6,17.5,166,18z M167.5,15.8c0.2,0,0.7-0.4,1.5-1.2c0.5-0.5,0.7-1,0.7-1.5c0-0.2-0.1-0.3-0.3-0.3
		c-0.3,0-0.8,0.5-1.5,1.4c-0.5,0.6-0.7,1-0.7,1.4C167.2,15.7,167.3,15.8,167.5,15.8z"/>
</g>
<g>
	<polygon class="st2" points="211.5,86.3 262.6,86.3 242.1,64.5 262.6,42.7 211.5,42.7 	"/>
	<polygon class="st0" points="211.2,86.8 226.6,72.5 211.2,72.5 	"/>
	<polygon class="st2" points="55.9,86.3 4.8,86.3 25.3,64.5 4.8,42.7 55.9,42.7 	"/>
	<rect x="41.2" y="28.5" class="st2" width="185.1" height="43.6"/>
	<polygon class="st0" points="55.9,86.8 40.5,72.5 55.9,72.5 	"/>
</g>
<g>
	<path class="st1" d="M62.9,54.4h-6.6l-0.9,3.2c-0.2,0.6-0.3,1.1-0.3,1.4c0,0.6,0.4,0.8,1.4,0.8v1.1h-4.7v-1.1c1,0,1.3-0.3,1.7-1.6
		l5.7-18.6h2l6.2,18.2c0.6,1.7,0.9,2,1.9,2v1.1h-6.6v-1.1c1.1,0,1.5-0.2,1.5-0.8c0-0.3-0.1-0.6-0.2-1.1L62.9,54.4z M62.5,53l-3-9.2
		h-0.1L56.8,53H62.5z"/>
	<path class="st1" d="M70.6,60.8v-1.1c2.1,0,2.3-0.3,2.3-2.3v-14c0-2.1-0.2-2.3-2.3-2.3v-1.1h8.2c3.2,0,5.2,0.7,6.9,2.3
		c1.8,1.9,2.6,4.6,2.6,7.9c0,3.2-0.7,6-2.3,7.9c-1.6,1.8-3.8,2.8-7.7,2.8H70.6z M77.2,41.3c-0.8,0-0.9,0.2-0.9,1.4v15.1
		c0,1.5,0.1,1.8,1,1.8h1c2.9,0,6.3-1.6,6.3-9c0-5.9-1.7-9.2-5.9-9.2H77.2z"/>
	<path class="st1" d="M99.7,56.9l4.2-13.7c0.2-0.6,0.3-1,0.3-1.3c0-0.7-0.4-0.8-1.5-0.8v-1.1h4.8v1.1c-1.1,0-1.4,0.3-1.8,1.6
		l-5.9,18.6h-2.2l-6.2-18.2c-0.6-1.8-0.8-2-2-2v-1.1h6.9v1.1c-1.1,0-1.5,0.2-1.5,0.8c0,0.3,0.1,0.7,0.3,1.3L99.7,56.9L99.7,56.9z"/>
	<path class="st1" d="M122.6,60.8h-13.8v-1.1c2,0,2.3-0.3,2.3-2.3v-14c0-2.1-0.2-2.3-2.3-2.3v-1.1h13.1l0.9,4.6h-1.5
		c-0.7-3.1-1-3.3-2.6-3.3h-3.2c-0.9,0-1,0.2-1,1.3v6.7h3c1.3,0,1.5-0.3,1.5-2.9h1.4v7.2H119c0-2.7-0.2-2.9-1.5-2.9h-3.1v7.5
		c0,1.1,0.2,1.3,0.8,1.3h4.2c1.6,0,1.9-0.3,2.7-3.4h1.5L122.6,60.8z"/>
	<path class="st1" d="M130.4,39.9l9.2,16.5h0.1V43.4c0-2.1-0.3-2.3-2.2-2.3v-1.1h5.9v1.1c-1.8,0-2.1,0.2-2.1,2.3v17.7h-2.4l-10-17.9
		h-0.1v14.2c0,2.1,0.2,2.3,2.1,2.3v1.1H125v-1.1c1.9,0,2.2-0.3,2.2-2.3v-14c0-2.1-0.2-2.3-2.2-2.3v-1.1H130.4z"/>
	<path class="st1" d="M154.5,41.4v16c0,2.1,0.1,2.3,2.6,2.3v1.1h-8.6v-1.1c2.4,0,2.6-0.3,2.6-2.3v-16h-2.7c-1.7,0-1.9,0.1-2.5,3.6
		h-1.4l0.7-5h15.3l0.7,5h-1.4c-0.6-3.5-0.9-3.6-2.5-3.6H154.5z"/>
	<path class="st1" d="M167.9,53.7c0,2.5,0.4,5.9,4.4,5.9c4.2,0,4.4-3.9,4.4-5.9V43.4c0-2.1-0.2-2.3-2-2.3v-1.1h5.5v1.1
		c-1.7,0-1.9,0.2-1.9,2.3V54c0,2.5-0.5,4.3-1.7,5.5c-1.1,1.1-2.7,1.8-4.9,1.8c-6.6,0-7.2-3.7-7.2-7.5V43.4c0-2.1-0.2-2.3-2-2.3v-1.1
		h7.5v1.1c-1.8,0-2,0.2-2,2.3V53.7z"/>
	<path class="st1" d="M189.7,39.9c2.7,0,4.4,0.3,5.8,1.4c1.3,0.9,2,2.2,2,4.1c0,2.6-1.7,4.8-4.8,5.4l3.9,6.9c1,1.8,1.5,2,2.7,2v1.1
		h-4.7l-5.1-9.5h-2v6c0,2.1,0.1,2.3,2.1,2.3v1.1h-7.8v-1.1c2.1,0,2.3-0.3,2.3-2.4v-14c0-2.1-0.2-2.3-2.3-2.3v-1.1H189.7z
		 M188.3,41.3c-0.7,0-0.7,0.3-0.7,1.8v6.9h1.6c2.7,0,4.8-1,4.8-4.5c0-1.3-0.4-2.4-1.1-3.1c-0.7-0.6-1.7-1-3.1-1H188.3z"/>
	<path class="st1" d="M214.2,60.8h-13.8v-1.1c2,0,2.3-0.3,2.3-2.3v-14c0-2.1-0.2-2.3-2.3-2.3v-1.1h13.1l0.9,4.6h-1.5
		c-0.7-3.1-1-3.3-2.6-3.3H207c-0.9,0-1,0.2-1,1.3v6.7h3c1.3,0,1.5-0.3,1.5-2.9h1.4v7.2h-1.4c0-2.7-0.2-2.9-1.5-2.9H206v7.5
		c0,1.1,0.2,1.3,0.8,1.3h4.2c1.6,0,1.9-0.3,2.7-3.4h1.5L214.2,60.8z"/>
</g>
<g>
	<rect x="66.2" y="79" class="st3" width="216.5" height="41.5"/>
</g>
<g>
	<path class="st4" d="M80.7,83.1c0-1.5-0.1-1.6-1.6-1.6v-0.8h5.1c2,0,3.1,0.1,4.1,0.8c0.8,0.5,1.3,1.4,1.3,2.5c0,1.4-0.7,3.2-4,3.6
		v0c3,0.1,4.6,1.5,4.6,3.6c0,1.3-0.4,2.2-1.2,3c-0.8,0.8-2,1.2-4.2,1.2h-5.8v-0.8c1.5,0,1.6-0.2,1.6-1.7V83.1z M83.7,81.6
		c-0.5,0-0.6,0.2-0.6,0.7v4.9h1.1c1.3,0,3-0.5,3-3c0-1.8-0.9-2.6-2.4-2.6H83.7z M83.1,88.2v5.3c0,0.8,0.1,1,0.7,1h1.2
		c2.2,0,2.6-1.6,2.6-3.3c0-1.6-0.8-3-3.2-3H83.1z"/>
	<path class="st4" d="M91.9,88.1c0-4.2,1.6-7.7,6.3-7.7c5.1,0,6.4,4,6.4,7.7c0,3.9-1.4,7.7-6.4,7.7C93.7,95.8,91.9,92.6,91.9,88.1z
		 M95.6,82.6c-0.7,1-1.2,2.6-1.2,5.5c0,2.6,0.4,6.8,3.8,6.8c1.1,0,2-0.5,2.7-1.3c0.8-1.2,1.2-3.1,1.2-5.4c0-3-0.4-6.8-3.8-6.8
		C97.6,81.3,96.5,81.4,95.6,82.6z"/>
	<path class="st4" d="M106.4,88.1c0-4.2,1.6-7.7,6.3-7.7c5.1,0,6.4,4,6.4,7.7c0,3.9-1.4,7.7-6.4,7.7
		C108.1,95.8,106.4,92.6,106.4,88.1z M110.1,82.6c-0.7,1-1.2,2.6-1.2,5.5c0,2.6,0.4,6.8,3.8,6.8c1.1,0,2-0.5,2.7-1.3
		c0.8-1.2,1.2-3.1,1.2-5.4c0-3-0.4-6.8-3.8-6.8C112.1,81.3,111,81.4,110.1,82.6z"/>
	<path class="st4" d="M127.4,86.2l3.8,6.9c0.8,1.4,1.1,1.6,1.9,1.6v0.8h-3.4l-4-7.5l-1.2,1.6V93c0,1.5,0.1,1.7,1.4,1.7v0.8h-5.4
		v-0.8c1.5,0,1.6-0.2,1.6-1.6v-9.9c0-1.5-0.1-1.6-1.6-1.6v-0.8h5.4v0.8c-1.2,0-1.3,0.2-1.3,1.6v4.7h0.1l3.6-4.7
		c0.5-0.6,0.7-1,0.7-1.3c0-0.3-0.3-0.4-0.9-0.4v-0.8h4v0.8c-0.8,0-1.2,0.1-1.8,1L127.4,86.2z"/>
	<path class="st4" d="M148.9,84.8c-0.4-2.2-0.7-3.5-2.8-3.5c-3.4,0-4,4-4,6.5c0,4.9,1.9,6.8,3.9,6.8c2,0,3-1.8,3.4-3.2l1,0.2
		c-0.9,3.2-3,4-4.8,4c-3.9,0-6-2.7-6-7.8c0-4.9,2.4-7.6,6.4-7.6c0.9,0,2,0.1,3.4,0.7c0.1,1.1,0.3,2.4,0.5,3.5L148.9,84.8z"/>
	<path class="st4" d="M162.3,91.9l-0.7,3.6h-9.8v-0.8c1.4,0,1.6-0.2,1.6-1.7v-9.9c0-1.5-0.2-1.6-1.6-1.6v-0.8h5.7v0.8
		c-1.5,0-1.6,0.1-1.6,1.7v10.4c0,0.9,0.1,0.9,0.7,0.9h2.8c1.2,0,1.4-0.2,2-2.6H162.3z"/>
	<path class="st4" d="M167,90.4c0,1.7,0.3,4.2,3.1,4.2c3,0,3.1-2.8,3.1-4.2v-7.3c0-1.5-0.2-1.6-1.4-1.6v-0.8h3.9v0.8
		c-1.2,0-1.4,0.2-1.4,1.6v7.5c0,1.8-0.4,3-1.2,3.9c-0.8,0.8-1.9,1.3-3.5,1.3c-4.6,0-5.1-2.6-5.1-5.3v-7.4c0-1.5-0.1-1.6-1.4-1.6
		v-0.8h5.3v0.8c-1.3,0-1.4,0.1-1.4,1.6V90.4z"/>
	<path class="st4" d="M178.6,83.1c0-1.5-0.1-1.6-1.6-1.6v-0.8h5.1c2,0,3.1,0.1,4.1,0.8c0.8,0.5,1.3,1.4,1.3,2.5c0,1.4-0.7,3.2-4,3.6
		v0c3,0.1,4.6,1.5,4.6,3.6c0,1.3-0.4,2.2-1.2,3c-0.8,0.8-2,1.2-4.2,1.2h-5.8v-0.8c1.5,0,1.6-0.2,1.6-1.7V83.1z M181.6,81.6
		c-0.5,0-0.6,0.2-0.6,0.7v4.9h1.1c1.3,0,3-0.5,3-3c0-1.8-0.9-2.6-2.4-2.6H181.6z M181,88.2v5.3c0,0.8,0.1,1,0.7,1h1.2
		c2.2,0,2.6-1.6,2.6-3.3c0-1.6-0.8-3-3.2-3H181z"/>
</g>
<g>
</g>
<g>
</g>
<g>
</g>
<g>
</g>
<g>
</g>
<g>
</g>
</svg>
