<svg version="1" xmlns="http://www.w3.org/2000/svg" width="267.3" height="99.8" viewBox="0 0 267.3 99.8"><style type="text/css"><![CDATA[
	.st0{fill:#4A1B0F;}
	.st1{fill:#F1F0F0;}
	.st2{fill:#AE3424;stroke:#4A1B0F;stroke-width:0.7926;stroke-miterlimit:10;}
	.st3{fill:none;}
	.st4{fill:#414042;}
]]></style><path class="st4" d="M112.3 5.1c.4.2.6.4.6.6 0 .1-.1.3-.2.4-.9.7-1.8 1.5-2.6 2.4-.9 1-1.7 2.8-2.5 5.4.3-.2.6-.4.9-.7.2-.2.4-.3.6-.3s.3.1.3.3c0 .2-.2.5-.5.8-.3.3-.9.8-1.7 1.4-.5 1.6-.8 2.7-1.2 3.5-.5 1.1-1 1.9-1.7 2.5-.5.5-1.2.9-2.1 1.2-1 .3-1.9.5-2.9.5-1.3 0-2.4-.3-3.2-1-1.1-.9-1.6-1.9-1.6-2.9 0-.6.2-1.3.6-2 .2-.3.5-.6.9-.8.4-.2.8-.3 1.2-.3.6 0 1.1.3 1.4.8.2.3.3.6.3.9 0 .7-.5 1.2-1.4 1.5-.2.1-.2.3-.2.6 0 .4.2.7.5 1 .3.3.7.4 1 .4 1.1 0 2.4-1.1 3.8-3.3.4-.6.8-1.3 1-1.9-1-.2-1.9-.6-2.6-1.3-.7-.8-1.1-1.7-1.1-2.8 0-2 1-3.8 3-5.3 1.9-1.5 4.1-2.2 6.4-2.2 1.3.1 2.3.2 3 .6zm-8.1 9.7l1.1-2.7c.5-1 1-1.9 1.6-2.6 1.5-1.8 2.6-3 3.4-3.5-.5-.3-1-.4-1.7-.4-1.4 0-2.7.5-3.9 1.6-1.4 1.2-2.2 2.8-2.3 4.7 0 .7.1 1.4.5 1.9s.8.8 1.3 1zM118.5 16c.2.1.3.2.3.3 0 .2-.1.4-.3.6-.7 1-1.6 1.5-2.6 1.6-.3 0-.6 0-.8-.1-1.3 1.7-2.7 2.5-4.3 2.5-.7 0-1.3-.2-1.8-.7-.4-.5-.7-1.1-.7-1.9 0-.3 0-.7.1-1.1-.1.1-.1.1-.2.1-.3 0-.4-.1-.4-.4 0-.1.1-.3.2-.4.7-.9 1.5-1.8 2.3-2.6 1.3-1.4 2.4-2.3 3.4-2.7.6-.3 1.1-.4 1.6-.4 1 0 1.6.5 2 1.5.1.2.1.5.1.8 0 1-.4 2.2-1.1 3.6.2.1.3.3.3.6.5-.1.9-.4 1.2-.9.3-.4.5-.5.7-.4zm-6.2 2.8l.3.1c.5 0 .9-.4 1.2-1.2-.2-.3-.3-.7-.3-1 0-.2 0-.4.1-.6.2-.5.7-.7 1.4-.5.6-1.1.8-1.9.8-2.4 0-.4-.2-.6-.6-.6-.6 0-1.4.9-2.4 2.7-.8 1.4-1.1 2.3-1.1 2.9.2.2.3.4.6.6zM117.8 17.2c-.3-.2-.4-.4-.2-.7.3-.3.9-1.1 1.8-2.2.5-.7.9-1.4 1.4-2 .5-.8 1-1.2 1.2-1.2l.7-.2c.1 0 .3.1.4.3.6.8 1 1.3 1 1.6 0 .4-.3 1.2-.9 2.5-.6 1.2-.8 2-.8 2.4 0 .2.1.2.2.2.2 0 .5-.3 1.1-.9.7-.7 1.2-1.1 1.4-1.1.3 0 .5.1.5.4 0 .1-.1.4-.2.6-.4.6-1.2 1.5-2.5 2.5-1.4 1.1-2.4 1.6-3 1.6-.4 0-.8-.2-1.1-.5-.2-.3-.3-.5-.3-.8 0-.5.1-1.1.4-1.8.1-.4.6-1.4 1.5-3.2-.6.7-1.2 1.5-2 2.4-.1 0-.3.1-.6.1zm8.9-11.4c.3.2.4.5.4 1 0 .7-.2 1.4-.7 1.9-.5.5-1.1.8-1.7.8-.4 0-.8-.1-1.1-.3-.3-.2-.4-.6-.4-1.1 0-.6.2-1.2.7-1.9.4-.6 1-.8 1.7-.8.4.1.8.2 1.1.4zM124.4 17.5c-.2 0-.3-.1-.3-.2s.1-.3.2-.5c.8-.9 1.7-2.1 2.8-3.6 1.1-1.7 1.8-2.4 2.2-2.4.3.1.5.2.8.5.3.3.4.5.5.8.1.6.1 1.1 0 1.5-.1.3-.3.7-.8 1.4.5-.5 1-.9 1.4-1.3 1-.9 1.8-1.6 2.3-1.9.3-.2.6-.4 1-.6.3-.2.6-.3.9-.3.4 0 .8.2 1.1.7.1.1.1.2.1.3 0 .3-.3 1.2-1 2.5-1 1.8-1.4 2.9-1.4 3.2 0 .1.1.2.2.2.4 0 1-.3 1.7-1 0 0 .2-.2.5-.6.2-.2.4-.4.5-.4.2 0 .3.2.3.5s-.2.6-.5 1c-.4.4-1 1-1.8 1.7-1 .8-1.7 1.3-2 1.5-.4.2-.7.2-1.1.2-.8 0-1.3-.3-1.4-1-.1-.6.6-2.3 2-4.9.1-.1.1-.2.1-.3 0-.1-.1-.1-.2-.1-.2 0-.5.1-.8.4-.3.3-.8.9-1.6 1.8l-1.9 2.3s-.8.9-1.3 1.3-1 .6-1.4.6c-.5 0-.8-.3-.8-.8 0-.2.1-.6.3-.9.4-.6.6-.9.6-1 .3-.5.9-1.8 1.9-3.8-1.8 2.2-2.8 3.2-3.1 3.2zM145.6 12.2c-.5 0-.7-.2-.7-.5 0-.1 0-.2.1-.4.2-.3.7-.4 1.7-.4.2-.2.3-.4.4-.5.1-.2.6-1.1 1.6-2.7.2-.3.3-.4.5-.4s.4.1.6.4c.2.2.4.4.5.7.2.3.3.6.3.9 0 .3-.1.7-.3 1.2 0 0-.1.1-.2.5 1.2 0 1.8.1 1.8.4 0 .1 0 .2-.1.3l-.4.6c-.1.1-.3.1-.6.1h-1.4c-.6.9-.9 1.5-1 1.7 0 0 .1-.2.3-.5-1.2 2.3-1.8 3.5-1.9 3.7-.2.5-.2.8.1.9h.4s.4-.2.5-.3c.6-.4 1.2-1 1.9-1.6.2-.2.4-.3.6-.3.3 0 .5.1.5.4 0 .1-.1.3-.4.7-.6.7-1.5 1.5-2.7 2.4-1.4 1-2.5 1.5-3.2 1.5-.6 0-1-.2-1.4-.6-.3-.4-.5-.7-.4-1.2.1-1 .8-2.5 2-4.6-.6.7-1.3 1.6-2.1 2.6-.3.3-.5.3-.8.1-.3-.2-.3-.4 0-.7 1-1.2 2.3-2.6 3.8-4.4zM149.6 16.4c0-.1.8-.9 2.2-2.5.3-.4.9-1.1 1.6-2.2.8-1.1 1.4-2.1 1.8-3 .3-.7.7-1.4 1-2 .6-1 1-1.6 1.3-1.6.5 0 1 .7 1.5 2.2v.2c0 .3-.3 1-.9 2.1-.8 1.6-1.4 2.8-1.7 3.5 2.3-1.5 3.9-2.2 4.8-2.2.3 0 .6.1.8.3s.3.5.3.8c0 .2 0 .5-.1.7-.1.3-.8 1.6-2.1 3.9-.1.2-.2.4-.2.5 0 .2.2.3.5.3s.5-.1.6-.2c.5-.4.9-.8 1.2-1.2.2-.3.5-.5.6-.5.3 0 .4.1.4.4 0 .1-.1.2-.2.4s-.2.3-.2.3c0 .1-.8.9-2.2 2.2-.5.5-1.1.9-1.8 1.3s-1.2.7-1.6.7h-.2c-.8-.5-1.3-1-1.3-1.5 0-.4.2-.9.5-1.7.4-.9.6-1.6.6-2.1 0-.2-.1-.3-.2-.3-.3 0-.9.6-1.9 1.9-1.1 1.5-2 2.5-2.7 3l-1.2.6c-.1.1-.2.1-.3.1-.3 0-.6-.3-.8-.8-.1-.2.4-1.2 1.3-2.9 1.4-2.5 2.1-3.9 2.3-4.2-.3.5-.9 1.3-1.9 2.5-.8 1-1.3 1.6-1.5 1.8-.1.1-.2.1-.3.1-.2 0-.4-.1-.5-.3.3-.2.3-.4.5-.6zM166 18c-.1.8.2 1.2.9 1.2.4 0 .9-.2 1.5-.5s1.1-.7 1.5-1.2c.6-.6.9-1 1.1-1.1.2-.1.3-.2.4-.2.1 0 .3.1.4.2.1.1.1.1.1.2 0 .3-.5 1-1.5 1.9-1.9 1.7-3.6 2.6-5.1 2.6-.5 0-.9-.1-1.3-.3-.5-.3-.9-.7-1.2-1.3-.2-.5-.3-.9-.3-1.2.1-.4.1-.6.1-.7.1-.2.2-.4.5-.6-.4.4-.6.6-.8.6-.1 0-.2-.1-.4-.2-.1-.1-.2-.3-.2-.4 0-.2.1-.4.4-.6.2-.1.6-.7 1.4-1.6.8-1 1.6-1.7 2.5-2.4 1.2-.9 2.2-1.4 3.2-1.4.6 0 1.1.2 1.5.5.4.4.6.8.6 1.3 0 .7-.4 1.5-1.3 2.4-1 1.4-2.4 2.3-4 2.8zm1.5-2.2c.2 0 .7-.4 1.5-1.2.5-.5.7-1 .7-1.5 0-.2-.1-.3-.3-.3-.3 0-.8.5-1.5 1.4-.5.6-.7 1-.7 1.4 0 .1.1.2.3.2z"/><polygon class="st2" points="211.5,86.3 262.6,86.3 242.1,64.5 262.6,42.7 211.5,42.7"/><polygon class="st0" points="211.2,86.8 226.6,72.5 211.2,72.5"/><polygon class="st2" points="55.9,86.3 4.8,86.3 25.3,64.5 4.8,42.7 55.9,42.7"/><rect x="41.2" y="28.5" class="st2" width="185.1" height="43.6"/><polygon class="st0" points="55.9,86.8 40.5,72.5 55.9,72.5"/><path class="st1" d="M62.9 54.4h-6.6l-.9 3.2c-.2.6-.3 1.1-.3 1.4 0 .6.4.8 1.4.8v1.1h-4.7v-1.1c1 0 1.3-.3 1.7-1.6l5.7-18.6h2l6.2 18.2c.6 1.7.9 2 1.9 2v1.1h-6.6v-1.1c1.1 0 1.5-.2 1.5-.8 0-.3-.1-.6-.2-1.1l-1.1-3.5zm-.4-1.4l-3-9.2h-.1l-2.6 9.2h5.7zM70.6 60.8v-1.1c2.1 0 2.3-.3 2.3-2.3v-14c0-2.1-.2-2.3-2.3-2.3v-1.1h8.2c3.2 0 5.2.7 6.9 2.3 1.8 1.9 2.6 4.6 2.6 7.9 0 3.2-.7 6-2.3 7.9-1.6 1.8-3.8 2.8-7.7 2.8h-7.7zm6.6-19.5c-.8 0-.9.2-.9 1.4v15.1c0 1.5.1 1.8 1 1.8h1c2.9 0 6.3-1.6 6.3-9 0-5.9-1.7-9.2-5.9-9.2h-1.5zM99.7 56.9l4.2-13.7c.2-.6.3-1 .3-1.3 0-.7-.4-.8-1.5-.8v-1.1h4.8v1.1c-1.1 0-1.4.3-1.8 1.6l-5.9 18.6h-2.2l-6.2-18.2c-.6-1.8-.8-2-2-2v-1.1h6.9v1.1c-1.1 0-1.5.2-1.5.8 0 .3.1.7.3 1.3l4.6 13.7zM122.6 60.8h-13.8v-1.1c2 0 2.3-.3 2.3-2.3v-14c0-2.1-.2-2.3-2.3-2.3v-1.1h13.1l.9 4.6h-1.5c-.7-3.1-1-3.3-2.6-3.3h-3.2c-.9 0-1 .2-1 1.3v6.7h3c1.3 0 1.5-.3 1.5-2.9h1.4v7.2h-1.4c0-2.7-.2-2.9-1.5-2.9h-3.1v7.5c0 1.1.2 1.3.8 1.3h4.2c1.6 0 1.9-.3 2.7-3.4h1.5l-1 4.7zM130.4 39.9l9.2 16.5h.1v-13c0-2.1-.3-2.3-2.2-2.3v-1.1h5.9v1.1c-1.8 0-2.1.2-2.1 2.3v17.7h-2.4l-10-17.9h-.1v14.2c0 2.1.2 2.3 2.1 2.3v1.1h-5.9v-1.1c1.9 0 2.2-.3 2.2-2.3v-14c0-2.1-.2-2.3-2.2-2.3v-1.1h5.4zM154.5 41.4v16c0 2.1.1 2.3 2.6 2.3v1.1h-8.6v-1.1c2.4 0 2.6-.3 2.6-2.3v-16h-2.7c-1.7 0-1.9.1-2.5 3.6h-1.4l.7-5h15.3l.7 5h-1.4c-.6-3.5-.9-3.6-2.5-3.6h-2.8zM167.9 53.7c0 2.5.4 5.9 4.4 5.9 4.2 0 4.4-3.9 4.4-5.9v-10.3c0-2.1-.2-2.3-2-2.3v-1.1h5.5v1.1c-1.7 0-1.9.2-1.9 2.3v10.6c0 2.5-.5 4.3-1.7 5.5-1.1 1.1-2.7 1.8-4.9 1.8-6.6 0-7.2-3.7-7.2-7.5v-10.4c0-2.1-.2-2.3-2-2.3v-1.1h7.5v1.1c-1.8 0-2 .2-2 2.3v10.3zM189.7 39.9c2.7 0 4.4.3 5.8 1.4 1.3.9 2 2.2 2 4.1 0 2.6-1.7 4.8-4.8 5.4l3.9 6.9c1 1.8 1.5 2 2.7 2v1.1h-4.7l-5.1-9.5h-2v6c0 2.1.1 2.3 2.1 2.3v1.1h-7.8v-1.1c2.1 0 2.3-.3 2.3-2.4v-14c0-2.1-.2-2.3-2.3-2.3v-1.1h7.9zm-1.4 1.4c-.7 0-.7.3-.7 1.8v6.9h1.6c2.7 0 4.8-1 4.8-4.5 0-1.3-.4-2.4-1.1-3.1-.7-.6-1.7-1-3.1-1h-1.5zM214.2 60.8h-13.8v-1.1c2 0 2.3-.3 2.3-2.3v-14c0-2.1-.2-2.3-2.3-2.3v-1.1h13.1l.9 4.6h-1.5c-.7-3.1-1-3.3-2.6-3.3h-3.3c-.9 0-1 .2-1 1.3v6.7h3c1.3 0 1.5-.3 1.5-2.9h1.4v7.2h-1.4c0-2.7-.2-2.9-1.5-2.9h-3v7.5c0 1.1.2 1.3.8 1.3h4.2c1.6 0 1.9-.3 2.7-3.4h1.5l-1 4.7z"/><rect x="66.2" y="79" class="st3" width="216.5" height="41.5"/><path class="st4" d="M80.7 83.1c0-1.5-.1-1.6-1.6-1.6v-.8h5.1c2 0 3.1.1 4.1.8.8.5 1.3 1.4 1.3 2.5 0 1.4-.7 3.2-4 3.6 3 .1 4.6 1.5 4.6 3.6 0 1.3-.4 2.2-1.2 3-.8.8-2 1.2-4.2 1.2h-5.8v-.8c1.5 0 1.6-.2 1.6-1.7v-9.8zm3-1.5c-.5 0-.6.2-.6.7v4.9h1.1c1.3 0 3-.5 3-3 0-1.8-.9-2.6-2.4-2.6h-1.1zm-.6 6.6v5.3c0 .8.1 1 .7 1h1.2c2.2 0 2.6-1.6 2.6-3.3 0-1.6-.8-3-3.2-3h-1.3zM91.9 88.1c0-4.2 1.6-7.7 6.3-7.7 5.1 0 6.4 4 6.4 7.7 0 3.9-1.4 7.7-6.4 7.7-4.5 0-6.3-3.2-6.3-7.7zm3.7-5.5c-.7 1-1.2 2.6-1.2 5.5 0 2.6.4 6.8 3.8 6.8 1.1 0 2-.5 2.7-1.3.8-1.2 1.2-3.1 1.2-5.4 0-3-.4-6.8-3.8-6.8-.7-.1-1.8 0-2.7 1.2zM106.4 88.1c0-4.2 1.6-7.7 6.3-7.7 5.1 0 6.4 4 6.4 7.7 0 3.9-1.4 7.7-6.4 7.7-4.6 0-6.3-3.2-6.3-7.7zm3.7-5.5c-.7 1-1.2 2.6-1.2 5.5 0 2.6.4 6.8 3.8 6.8 1.1 0 2-.5 2.7-1.3.8-1.2 1.2-3.1 1.2-5.4 0-3-.4-6.8-3.8-6.8-.7-.1-1.8 0-2.7 1.2zM127.4 86.2l3.8 6.9c.8 1.4 1.1 1.6 1.9 1.6v.8h-3.4l-4-7.5-1.2 1.6v3.4c0 1.5.1 1.7 1.4 1.7v.8h-5.4v-.8c1.5 0 1.6-.2 1.6-1.6v-9.9c0-1.5-.1-1.6-1.6-1.6v-.8h5.4v.8c-1.2 0-1.3.2-1.3 1.6v4.7h.1l3.6-4.7c.5-.6.7-1 .7-1.3 0-.3-.3-.4-.9-.4v-.8h4v.8c-.8 0-1.2.1-1.8 1l-2.9 3.7zM148.9 84.8c-.4-2.2-.7-3.5-2.8-3.5-3.4 0-4 4-4 6.5 0 4.9 1.9 6.8 3.9 6.8s3-1.8 3.4-3.2l1 .2c-.9 3.2-3 4-4.8 4-3.9 0-6-2.7-6-7.8 0-4.9 2.4-7.6 6.4-7.6.9 0 2 .1 3.4.7.1 1.1.3 2.4.5 3.5l-1 .4zM162.3 91.9l-.7 3.6h-9.8v-.8c1.4 0 1.6-.2 1.6-1.7v-9.9c0-1.5-.2-1.6-1.6-1.6v-.8h5.7v.8c-1.5 0-1.6.1-1.6 1.7v10.4c0 .9.1.9.7.9h2.8c1.2 0 1.4-.2 2-2.6h.9zM167 90.4c0 1.7.3 4.2 3.1 4.2 3 0 3.1-2.8 3.1-4.2v-7.3c0-1.5-.2-1.6-1.4-1.6v-.8h3.9v.8c-1.2 0-1.4.2-1.4 1.6v7.5c0 1.8-.4 3-1.2 3.9-.8.8-1.9 1.3-3.5 1.3-4.6 0-5.1-2.6-5.1-5.3v-7.4c0-1.5-.1-1.6-1.4-1.6v-.8h5.3v.8c-1.3 0-1.4.1-1.4 1.6v7.3zM178.6 83.1c0-1.5-.1-1.6-1.6-1.6v-.8h5.1c2 0 3.1.1 4.1.8.8.5 1.3 1.4 1.3 2.5 0 1.4-.7 3.2-4 3.6 3 .1 4.6 1.5 4.6 3.6 0 1.3-.4 2.2-1.2 3-.8.8-2 1.2-4.2 1.2h-5.8v-.8c1.5 0 1.6-.2 1.6-1.7v-9.8zm3-1.5c-.5 0-.6.2-.6.7v4.9h1.1c1.3 0 3-.5 3-3 0-1.8-.9-2.6-2.4-2.6h-1.1zm-.6 6.6v5.3c0 .8.1 1 .7 1h1.2c2.2 0 2.6-1.6 2.6-3.3 0-1.6-.8-3-3.2-3h-1.3z"/></svg>