<svg version="1" xmlns="http://www.w3.org/2000/svg" width="605.7" height="609" viewBox="0 0 605.7 609"><style type="text/css"><![CDATA[
	.st0{fill:#1A1A1A;}
	.st1{fill:#FFFFFF;stroke:#414042;stroke-width:13.273;stroke-miterlimit:10;}
	.st2{fill:none;stroke:#1A1A1A;stroke-width:0.8555;stroke-miterlimit:10;}
	.st3{fill:#414042;}
]]></style><g id="Layer_5"><path class="st1" d="M597.3 303.9c0 162.5-131.7 294.2-294.2 294.2s-294.2-131.7-294.2-294.2 131.7-294.2 294.2-294.2 294.2 131.7 294.2 294.2z"/><path class="st0" d="M486.3 328v-202.5l-8.8 9.2c-.2.2-17.9 18.4-36.7 18.4-1 0-2 0-3.2-.2-.1 0-13.7-1.3-28.4-14.5-2.7-2.6-26.5-25.4-39.3-30.3-1.7-.8-10.6-4.7-22.2-4.7s-22.1 3.8-31.2 11.3c-.4.3-7.6 6.6-13.3 13.7-5.7-7.2-12.9-13.4-13.3-13.8-9-7.5-19.5-11.3-31.2-11.3-11.6 0-20.5 3.9-22.2 4.7-12.9 4.8-36.7 27.7-39.2 30.1-14.9 13.4-28.4 14.6-28.7 14.6-19.9 2.2-39.5-18.1-39.7-18.3l-8.8-9.2v202.8l.4.4c2.1 2.6 13.9 17.2 30.4 27.4 0 0 18.8 12.3 45.7 16.7 0 0 21.8 5.1 48.5-.9 0 0 16.1-2.7 34.5-15.3 0 0 11.5-7.9 23.8-8.8 12.2.9 23.8 8.8 23.8 8.8 18.4 12.5 34.5 15.3 34.5 15.3 26.7 6 48.5.9 48.5.9 26.9-4.4 45.7-16.7 45.7-16.7 16.5-10.2 28.3-24.8 30.4-27.4v-.4zm-163.3-205.3c7.1-5.9 15.4-8.9 24.6-8.9 10.2 0 17.9 3.7 17.9 3.8l.6.2c9.1 3.3 29 21.4 36.1 28.2 17.7 15.9 34 17.2 34.5 17.2 15.6 1.7 30.4-6.9 39.4-13.7v174.2c-4.6 4.3-19.6 17.1-35.3 17.1-1 0-2-.1-3.2-.2-.1 0-13.7-1.2-28.4-14.5-2.7-2.6-26.5-25.4-39.3-30.3-1.7-.8-10.6-4.7-22.2-4.7s-22.1 3.8-31.2 11.3c-.3.2-3.9 3.4-8 7.7v-171.3c4.6-7.5 14.5-16.1 14.5-16.1zm-192.8 26.8c8.2 6.2 21.1 13.9 35.3 13.9 1.4 0 2.7-.1 3.9-.2.7 0 17-1.3 34.8-17.3 6.9-6.7 26.8-24.8 35.9-28.1l.6-.2c.1 0 7.8-3.8 17.9-3.8 9.2 0 17.5 3 24.5 8.8.1.1 10 8.7 14.7 16.2v171.4c-4.1-4.3-7.7-7.5-8-7.7-9-7.5-19.5-11.3-31.1-11.3-11.6 0-20.5 3.9-22.2 4.7-12.9 4.8-36.7 27.7-39.2 30.1-14.9 13.4-28.4 14.6-28.8 14.6-1 .1-2 .2-3 .2-15.7 0-30.7-12.8-35.3-17.1v-174.2z"/><line class="st2" x1="121.1" y1="415.3" x2="252" y2="415.3"/><line class="st2" x1="354.2" y1="415.3" x2="485.1" y2="415.3"/><polygon class="st3" points="294.3,404.7 276.6,404.7 276.6,407.5 283.9,407.5 283.9,425.9 287,425.9 287,407.5 294.3,407.5"/><polygon class="st3" points="298.9,416.7 310.7,416.7 310.7,425.9 313.8,425.9 313.8,404.7 310.7,404.7 310.7,413.8 298.9,413.8 298.9,404.7 295.8,404.7 295.8,425.9 298.9,425.9"/><polygon class="st3" points="329.3,423.1 320.1,423.1 320.1,416.6 328.7,416.6 328.7,413.8 320.1,413.8 320.1,407.5 329,407.5 329,404.7 317,404.7 317,425.8 329.3,425.8"/><path class="st3" d="M139.9 460.1c4.1-1.8 6.2-4.7 6.2-8.8 0-2.1-.5-4-1.5-5.7-1-1.6-2.5-2.9-4.4-3.8-1.9-.9-4.6-1.4-8.1-1.4h-11v41.8h14.2c3.2 0 5.9-.5 8-1.6 2.1-1 3.7-2.4 4.8-4.1 1.1-1.7 1.6-3.6 1.6-5.7 0-2.7-.9-5-2.7-7-1.7-1.8-4.1-3.1-7.1-3.7zm-12.7-14.2h5.1c5 0 7.6 2 7.6 5.9 0 1.9-.7 3.5-2 4.7-1.3 1.2-3.6 1.8-6.7 1.8h-3.9v-12.4zm15.2 27.8c-.7 1.1-1.6 1.8-2.8 2.3-1.2.5-3.4.8-6.6.8h-5.8v-13.1h5.5c2.9 0 5.1.3 6.5.8 1.4.5 2.4 1.3 3.2 2.3.7 1 1.1 2.2 1.1 3.5 0 1.2-.4 2.3-1.1 3.4zM173.6 439.9c-6.4 0-11.8 2.1-16 6.1-4.2 4.1-6.3 9.3-6.3 15.5 0 6.1 2.1 11.2 6.3 15.2 4.2 4 9.5 6.1 15.7 6.1 6.6 0 12.1-2 16.4-6.1 4.3-4 6.5-9.2 6.5-15.3 0-6.1-2.2-11.3-6.4-15.4-4.4-4.1-9.8-6.1-16.2-6.1zm11.6 32.7c-3.1 3-7 4.6-11.6 4.6s-8.5-1.5-11.5-4.5c-3.1-3-4.6-6.7-4.6-11.2 0-4.6 1.5-8.4 4.6-11.4 3-3 7-4.5 11.7-4.5 4.5 0 8.3 1.5 11.4 4.5 3.1 3 4.6 6.7 4.6 11.1.1 4.5-1.5 8.3-4.6 11.4zM221.4 439.9c-6.4 0-11.8 2.1-16 6.1-4.2 4.1-6.3 9.3-6.3 15.5 0 6.1 2.1 11.2 6.3 15.2 4.2 4 9.5 6.1 15.7 6.1 6.6 0 12.1-2 16.4-6.1 4.3-4 6.5-9.2 6.5-15.3 0-6.1-2.2-11.3-6.4-15.4-4.3-4.1-9.8-6.1-16.2-6.1zm11.7 32.7c-3.1 3-7 4.6-11.6 4.6s-8.5-1.5-11.5-4.5c-3.1-3-4.6-6.7-4.6-11.2 0-4.6 1.5-8.4 4.6-11.4 3-3 7-4.5 11.7-4.5 4.5 0 8.3 1.5 11.4 4.5 3.1 3 4.6 6.7 4.6 11.1 0 4.5-1.5 8.3-4.6 11.4z"/><polygon class="st3" points="278.6,440.5 278.7,440.5 271.1,440.5 253.6,459.4 253.6,440.5 247.5,440.5 247.5,482.2 253.6,482.2 253.6,461.7 274.8,482.2 274.8,482.2 283.1,482.2 260.5,460.3"/><path class="st3" d="M310.4 459.7l-4.6-2.7c-2-1.2-3.5-2.3-4.4-3.4-.9-1.1-1.4-2.2-1.4-3.5 0-1.4.6-2.5 1.9-3.4 1.2-.9 2.8-1.3 4.8-1.3 3.4 0 6.7 1.5 9.7 4.3l.1.1v-6.9c-2.9-1.9-6.1-2.9-9.6-2.9-3.6 0-6.6 1-8.9 3.1-2.3 2-3.4 4.7-3.4 8 0 2.2.6 4.2 1.8 5.8 1.2 1.7 3.3 3.4 6.1 5.1l4.5 2.8c3.6 2.3 5.5 4.7 5.5 7.2 0 1.5-.6 2.8-1.8 3.9-1.2 1-2.8 1.6-4.6 1.6-4.2 0-8-2.1-11.1-6.1l-.1-.1v7.7c3.4 2.5 7.2 3.8 11.3 3.8 3.6 0 6.5-1.1 8.8-3.1 2.2-2.1 3.4-4.8 3.4-8.2-.4-4.8-2.9-8.7-8-11.8z"/><polygon class="st3" points="354.5,440.4 319.6,440.4 319.6,445.8 333.9,445.8 333.9,482.2 340,482.2 340,445.8 354.5,445.8"/><path class="st3" d="M368.2 440.2h-4.2l-18 41.9v.1h6.2l5.2-12.3h17.7l5.5 12.3h6.2l-18.6-42zm-8.3 24.3l6.2-14.9 6.6 14.9h-12.8z"/><polygon class="st3" points="450.8,458.5 427.5,458.5 427.5,440.5 421.4,440.5 421.4,482.2 427.5,482.2 427.5,464.1 450.8,464.1 450.8,482.2 456.9,482.2 456.9,440.5 450.8,440.5"/><polygon class="st3" points="466.9,476.7 466.9,463.9 484,463.9 484,458.5 466.9,458.5 466.9,445.9 484.6,445.9 484.6,440.5 460.8,440.5 460.8,482.2 485.1,482.2 485.1,476.7"/><path class="st3" d="M406.1 439.9c-6.3 0-11.7 2.1-16 6.2-4.3 4.1-6.5 9.3-6.5 15.3 0 3.8 1 7.4 2.8 10.7 1.9 3.3 4.5 5.9 7.7 7.7 3.2 1.9 7.2 2.8 11.9 2.8 4.3 0 8.3-.7 11.8-2v-6.3h-.1c-3.7 1.8-7.6 2.8-11.4 2.8-4.8 0-8.8-1.5-11.9-4.4-3.1-2.9-4.6-6.7-4.6-11.2 0-4.5 1.6-8.3 4.7-11.3s7.1-4.5 11.8-4.5c3.6 0 7.5.9 11.4 2.7h.1v-6.2c-4.2-1.5-8.2-2.3-11.7-2.3z"/></g></svg>